<svg height="512pt" viewBox="-71 0 512 512.00126" width="512pt" xmlns="http://www.w3.org/2000/svg"><path d="m195.789062 428.488281c-78.679687 7.652344-120.617187-68.804687-92.242187-123.640625 16.257813-31.398437 39.609375-61.125 25.988281-112.417968 25.679688 13.65625 54.847656 22.980468 63.640625 85.808593 1.875 15.613281 19.378907 8.132813 25.054688-4.875 10.042969-23.039062 3.972656-52.679687 4.710937-54.410156 2.15625-5.15625 11.40625 4.222656 22.101563 20.800781 39.808593 61.75 45.511719 127.691406 8.199219 163.824219-14.015626 13.574219-33.226563 22.558594-57.453126 24.910156zm35.039063-267.683593c-8.683594-130.613282-70.082031-150.308594-93.773437-150.734376 11.039062 39.421876 24.515624 103.40625-11.917969 142.089844-18.640625-82.351562-81.597657-85.695312-84.976563-75.011718-3.261718 10.285156 17.480469 31.257812 19.636719 53.984374 4.851563 50.699219-4.796875 73.652344-19.066406 103.152344-59.046875 122.140625-26.53125 207.691406 43.039062 244.136719 50.875 26.636719 125.691407 30.578125 178.609375 12.15625 150.972656-52.566406 100.355469-296.589844 24.203125-395.066406-18.445312-23.832031-36.007812-41.488281-31.949219-21.820313 11.691407 56.59375-19.351562 90.710938-23.804687 87.113282zm0 0" fill="#f6838d" fill-rule="evenodd"/><path d="m103.546875 304.847656c-28.375 54.835938 13.5625 131.292969 92.242187 123.640625 24.230469-2.351562 43.4375-11.335937 57.453126-24.910156 37.308593-36.132813 31.609374-102.074219-8.199219-163.824219-10.699219-16.578125-19.945313-25.957031-22.101563-20.800781-.738281 1.730469 5.332032 31.371094-4.710937 54.410156-5.675781 13.007813-23.183594 20.488281-25.054688 4.875-8.796875-62.828125-37.960937-72.152343-63.640625-85.808593 13.621094 51.292968-9.730468 81.019531-25.988281 112.417968zm0 0" fill="#ffc15a" fill-rule="evenodd"/><path d="m189.152344 512c-5.804688.003906-11.640625-.183594-17.480469-.554688-34.648437-2.199218-66.660156-10.535156-92.574219-24.101562-39.222656-20.546875-65.121094-53.953125-74.894531-96.605469-10.582031-46.171875-1.085937-101.789062 27.457031-160.835937 14.269532-29.496094 22.609375-50.796875 18.109375-97.808594-.921875-9.730469-6.382812-19.859375-11.203125-28.792969-5.832031-10.820312-10.871094-20.160156-8.003906-29.199219 2.40625-7.609374 11.035156-11.851562 23.101562-11.355468 20.527344.855468 56.882813 16.335937 75.3125 66.714844 17.851563-34.402344 8.113282-81.914063-1.621093-116.675782-.859375-3.066406-.21875-6.355468 1.730469-8.871094 1.945312-2.519531 4.988281-3.9374995 8.148437-3.914062 9.96875.179688 35.753906 3.441406 59.78125 29.835938 21.84375 23.988281 35.839844 60.121093 41.722656 107.617187 6.226563-12.660156 11.859375-33.511719 6.03125-61.726563-2.066406-10.007812.101563-16.558593 6.441407-19.476562 9.339843-4.292969 18.453124 4.816406 23.34375 9.710938 5.488281 5.496093 12.402343 13.582031 19.992187 23.386718 17.984375 23.285156 34.382813 53.910156 47.425781 88.566406 1.957032 5.207032-.675781 11.015626-5.882812 12.972657-5.203125 1.957031-11.011719-.671875-12.972656-5.878907-12.34375-32.808593-27.738282-61.628906-44.507813-83.339843-4.601563-5.945313-8.527344-10.699219-11.8125-14.457031 3.824219 43.203124-15.035156 73.941406-27.632813 81.621093-7.632812 4.648438-13.15625 1.023438-14.667968-.195312-2.183594-1.765625-3.53125-4.363281-3.71875-7.167969-3.597656-54.125-16.605469-93.851562-38.65625-118.074219-11.121094-12.214843-22.5625-18.042969-31.355469-20.804687 4.121094 16.855468 8.042969 37.707031 8.203125 58.722656.246094 32.660156-8.667969 58.820312-26.5 77.75-2.550781 2.710938-6.390625 3.792969-9.984375 2.8125-3.589844-.980469-6.347656-3.863281-7.167969-7.492188-9.921875-43.820312-32.421875-60.570312-44.953125-66.65625-8.523437-4.136718-15.492187-5.042968-19.53125-4.886718 1.304688 3.1875 3.695313 7.625 5.464844 10.902344 5.441406 10.09375 12.214844 22.65625 13.523437 36.4375 4.988282 52.113281-4.691406 76.789062-20.027343 108.488281-50.101563 103.648437-35.292969 192.097656 38.652343 230.832031 47.167969 24.695312 118.921876 29.5625 170.621094 11.566406 101.195313-35.226562 94.421875-157.753906 86.808594-208.796875-.820312-5.5 2.976562-10.625 8.480469-11.445312 5.492187-.820313 10.625 2.976562 11.445312 8.476562 7.808594 52.378907 4.6875 100.273438-9.023437 138.5-16.480469 45.9375-47.125 76.988281-91.085938 92.289063-22.414062 7.800781-49.082031 11.910156-76.539062 11.910156zm74.964844-443.105469"/><path d="m195.777344 438.558594c-5.125 0-9.511719-3.890625-10.015625-9.097656-.535157-5.535157 3.515625-10.460938 9.054687-10.996094 21.078125-2.046875 38.378906-9.488282 51.417969-22.121094 15.867187-15.363281 23.398437-37.65625 21.773437-64.464844-1.65625-27.371094-12.523437-57.339844-31.429687-86.667968-.839844-1.300782-1.644531-2.515626-2.414063-3.652344-.097656 10.882812-1.523437 23.949218-6.703124 35.828125-5.464844 12.53125-18.230469 21.089843-29.046876 19.503906-8.347656-1.226563-14.03125-7.707031-15.222656-17.339844-6.070312-43.222656-21.867187-58.121093-40.039062-68.570312 3.5625 36.417969-10.757813 62.273437-23.625 85.511719-2.476563 4.46875-4.8125 8.6875-7.035156 12.984374-13.167969 25.476563-9.460938 57.074219 9.445312 80.492188 3.492188 4.328125 2.816406 10.671875-1.511719 14.164062-4.328125 3.492188-10.667969 2.816407-14.160156-1.511718-23.921875-29.632813-28.5-69.824219-11.667969-102.398438 2.359375-4.554687 4.875-9.09375 7.308594-13.488281 14.683594-26.519531 28.558594-51.570313 17.894531-91.722656-1.027343-3.871094.335938-7.984375 3.476563-10.472657 3.136718-2.492187 7.453125-2.882812 10.988281-1 2.195313 1.167969 4.417969 2.300782 6.648437 3.441407 24.980469 12.765625 53.277344 27.226562 62.140626 89.171875 1.90625-1.132813 4.480468-3.460938 5.945312-6.816406 6.859375-15.738282 4.960938-36.144532 4.148438-44.855469-.433594-4.644531-.632813-6.765625.527343-9.480469 1.78125-4.261719 5.558594-7.085938 10.078125-7.484375 6.125-.554687 13.96875 2.320313 29.75 26.777344 20.777344 32.230469 32.746094 65.554687 34.609375 96.371093 1.988281 32.855469-7.648437 60.570313-27.867187 80.148438-16.164063 15.660156-38.117188 25.238281-63.484375 27.699219-.332031.03125-.660157.046875-.984375.046875zm0 0"/><path d="m346.882812 236.820312c-3.695312 0-7.253906-2.039062-9.019531-5.570312l-.082031-.167969c-2.488281-4.976562-.472656-11.027343 4.503906-13.515625 4.972656-2.484375 11.023438-.46875 13.511719 4.507813l.085937.167969c2.488282 4.976562.472657 11.023437-4.503906 13.511718-1.445312.722656-2.984375 1.066406-4.496094 1.066406zm0 0"/><path d="m148.824219 432.214844c-1.316407 0-2.65625-.261719-3.945313-.8125l-.199218-.082032c-5.113282-2.183593-7.496094-8.097656-5.3125-13.214843 2.183593-5.117188 8.09375-7.496094 13.214843-5.3125l.199219.082031c5.117188 2.183594 7.496094 8.097656 5.3125 13.214844-1.632812 3.828125-5.355469 6.125-9.269531 6.125zm0 0"/></svg>