<svg viewBox="0 -24 512 512" width="24px" xmlns="http://www.w3.org/2000/svg"><g fill-rule="evenodd"><path d="m152.765625 184.863281v-174.777343h-29.96875c-7.164063 0-13.015625 5.851562-13.015625 13.015624v148.714844c0 7.167969 5.851562 13.046875 13.015625 13.046875zm0 0" fill="#60a4ff"/><path d="m152.765625 10.085938v174.777343c6.335937 0 12.5-.683593 18.4375-1.96875 20.722656-4.453125 38.703125-16.246093 51.117187-32.546875 11.160157-14.671875 17.8125-33.003906 17.8125-52.875 0-48.277344-39.132812-87.386718-87.367187-87.386718zm0 0" fill="#bdd9ff"/><path d="m222.320312 150.347656c-12.414062 16.300782-30.394531 28.09375-51.117187 32.546875v140.636719c0 14.042969 11.5 25.550781 25.542969 25.550781 14.074218 0 25.574218-11.503906 25.574218-25.550781zm0 0" fill="#60a4ff"/><path d="m359.234375 184.863281v-174.777343h29.96875c7.164063 0 13.015625 5.851562 13.015625 13.015624v148.714844c0 7.167969-5.851562 13.046875-13.015625 13.046875zm0 0" fill="#60a4ff"/><path d="m359.234375 10.085938v174.777343c-6.335937 0-12.5-.683593-18.4375-1.96875-20.71875-4.453125-38.703125-16.246093-51.117187-32.546875-11.160157-14.671875-17.808594-33.003906-17.808594-52.875-.003906-48.277344 39.128906-87.386718 87.363281-87.386718zm0 0" fill="#bdd9ff"/><path d="m289.679688 150.347656c12.414062 16.300782 30.394531 28.09375 51.117187 32.546875v140.636719c0 14.042969-11.5 25.550781-25.542969 25.550781-14.074218 0-25.574218-11.503906-25.574218-25.550781zm0 0" fill="#60a4ff"/></g><path d="m152.765625 0h-29.96875c-12.738281 0-23.101563 10.363281-23.101563 23.101562v148.714844c0 12.757813 10.363282 23.132813 23.101563 23.132813h29.96875c2.8125 0 5.597656-.128907 8.351563-.363281v128.945312c0 16.144531 10.796874 29.808594 25.546874 34.171875v96.210937c0 5.570313 4.515626 10.085938 10.082032 10.085938 5.570312 0 10.085937-4.515625 10.085937-10.085938v-96.210937c14.765625-4.355469 25.574219-18.023437 25.574219-34.171875v-44.964844c0-5.570312-4.515625-10.085937-10.085938-10.085937-5.570312 0-10.085937 4.515625-10.085937 10.085937v44.964844c0 8.527344-6.945313 15.464844-15.488281 15.464844-8.523438 0-15.457032-6.9375-15.457032-15.464844v-132.84375c11.328126-3.476562 21.78125-8.964844 30.945313-16.050781v19.304687c0 5.570313 4.515625 10.085938 10.085937 10.085938 5.570313 0 10.085938-4.515625 10.085938-10.085938v-40.355468c11.214844-15.878907 17.808594-35.238282 17.808594-56.113282 0-53.746094-43.714844-97.472656-97.449219-97.472656zm-32.898437 171.816406v-148.714844c0-1.589843 1.339843-2.933593 2.929687-2.933593h19.882813v154.613281h-19.882813c-1.589844 0-2.929687-1.355469-2.929687-2.964844zm42.984374 2.285156v-153.253906c37.859376 4.960938 67.195313 37.421875 67.195313 76.628906 0 39.203126-29.335937 71.664063-67.195313 76.625zm0 0"/><path d="m64.226562 87.390625h-54.140624c-5.570313 0-10.085938 4.515625-10.085938 10.085937 0 5.566407 4.515625 10.082032 10.085938 10.082032h54.140624c5.570313 0 10.085938-4.515625 10.085938-10.082032 0-5.570312-4.515625-10.085937-10.085938-10.085937zm0 0"/><path d="m19.207031 18.519531 38.273438 34.460938c1.925781 1.734375 4.339843 2.589843 6.742187 2.589843 2.761719 0 5.507813-1.125 7.5-3.335937 3.726563-4.140625 3.390625-10.515625-.746094-14.242187l-38.277343-34.460938c-4.136719-3.726562-10.515625-3.394531-14.238281.746094-3.726563 4.140625-3.394532 10.515625.746093 14.242187zm0 0"/><path d="m57.480469 141.96875-38.273438 34.460938c-4.140625 3.726562-4.472656 10.101562-.746093 14.242187 1.992187 2.210937 4.738281 3.335937 7.496093 3.335937 2.40625 0 4.816407-.855468 6.746094-2.589843l38.273437-34.460938c4.136719-3.726562 4.472657-10.101562.746094-14.242187-3.726562-4.140625-10.101562-4.472656-14.242187-.746094zm0 0"/><path d="m222.320312 226.855469c-5.570312 0-10.085937 4.515625-10.085937 10.082031v.199219c0 5.570312 4.515625 10.085937 10.085937 10.085937 5.570313 0 10.085938-4.515625 10.085938-10.085937v-.199219c0-5.566406-4.515625-10.082031-10.085938-10.082031zm0 0"/><path d="m389.203125 0h-29.96875c-53.734375 0-97.449219 43.726562-97.449219 97.476562 0 20.871094 6.597656 40.230469 17.808594 56.109376v40.359374c0 5.566407 4.515625 10.082032 10.085938 10.082032 5.566406 0 10.082031-4.515625 10.082031-10.082032v-19.308593c9.164062 7.085937 19.621093 12.574219 30.949219 16.050781v132.84375c0 8.527344-6.933594 15.464844-15.460938 15.464844-8.539062 0-15.488281-6.9375-15.488281-15.464844v-44.964844c0-5.570312-4.515625-10.085937-10.085938-10.085937-5.566406 0-10.082031 4.515625-10.082031 10.085937v44.964844c0 16.148438 10.808594 29.816406 25.574219 34.175781v96.210938c0 5.566406 4.515625 10.082031 10.082031 10.082031 5.570312 0 10.085938-4.515625 10.085938-10.082031v-96.214844c14.746093-4.359375 25.542968-18.023437 25.542968-34.171875v-128.945312c2.753906.234374 5.539063.363281 8.355469.363281h29.96875c12.734375 0 23.097656-10.375 23.097656-23.132813v-148.714844c.003907-12.738281-10.359375-23.101562-23.097656-23.101562zm-107.25 97.476562c0-39.207031 29.335937-71.667968 67.199219-76.628906v153.253906c-37.863282-4.960937-67.199219-37.421874-67.199219-76.625zm110.183594 74.339844c0 1.609375-1.34375 2.964844-2.933594 2.964844h-19.882813v-154.613281h19.882813c1.589844 0 2.933594 1.34375 2.933594 2.933593zm0 0"/><path d="m501.914062 87.390625h-54.140624c-5.570313 0-10.085938 4.515625-10.085938 10.085937 0 5.566407 4.515625 10.082032 10.085938 10.082032h54.140624c5.570313 0 10.085938-4.515625 10.085938-10.082032 0-5.570312-4.515625-10.085937-10.085938-10.085937zm0 0"/><path d="m447.773438 55.570312c2.40625 0 4.820312-.855468 6.746093-2.589843l38.273438-34.460938c4.140625-3.726562 4.476562-10.101562.746093-14.242187-3.726562-4.140625-10.101562-4.472656-14.238281-.746094l-38.277343 34.460938c-4.136719 3.726562-4.472657 10.101562-.746094 14.242187 1.992187 2.210937 4.738281 3.335937 7.496094 3.335937zm0 0"/><path d="m492.792969 176.429688-38.273438-34.460938c-4.136719-3.726562-10.515625-3.394531-14.242187.746094-3.726563 4.140625-3.390625 10.515625.746094 14.242187l38.277343 34.460938c1.925781 1.734375 4.339844 2.589843 6.742188 2.589843 2.761719 0 5.507812-1.125 7.496093-3.335937 3.730469-4.140625 3.394532-10.519531-.746093-14.242187zm0 0"/><path d="m289.679688 247.222656c5.566406 0 10.082031-4.515625 10.082031-10.082031v-.199219c0-5.570312-4.515625-10.085937-10.082031-10.085937-5.570313 0-10.085938 4.515625-10.085938 10.085937v.199219c0 5.566406 4.515625 10.082031 10.085938 10.082031zm0 0"/></svg>