<svg viewBox="0 -51 512 512" width="25px" xmlns="http://www.w3.org/2000/svg"><g fill-rule="evenodd"><path d="m74.398438 398.960938v-199.726563h-5.894532c-5.78125 0-11.421875.878906-16.71875 2.464844-24.058594 7.21875-41.714844 29.617187-41.714844 55.945312v82.902344c0 32.136719 26.296876 58.414063 58.433594 58.414063zm0 0" fill="#f5737f"/><path d="m74.398438 199.234375v199.726563h48.144531c9.863281 0 17.964843-8.097657 17.964843-17.980469v-163.765625c0-9.882813-8.101562-17.980469-17.964843-17.980469zm0 0" fill="#b3b0b5"/><path d="m108.148438 199.234375c10.65625-75.171875 75.71875-133.5 153.789062-133.5s143.164062 58.328125 153.789062 133.5h27.742188c10.570312 0 20.488281 2.832031 29.046875 7.785156-7.226563-109.542969-99.183594-196.949219-210.578125-196.949219-107.796875 0-197.371094 81.828126-209.585938 186.390626-.226562 1.726562-.398437 3.480468-.566406 5.238281 5.296875-1.585938 10.9375-2.464844 16.71875-2.464844zm0 0" fill="#f9f9f9"/><path d="m371.492188 217.214844v163.765625c0 9.878906 8.074218 17.976562 17.964843 17.976562h48.117188v-199.722656h-48.117188c-9.890625 0-17.964843 8.097656-17.964843 17.980469zm0 0" fill="#b3b0b5"/><path d="m437.574219 199.234375v199.414063c1.957031.195312 3.910156.3125 5.894531.3125 32.164062 0 58.460938-26.277344 58.460938-58.414063v-82.902344c0-21.574219-11.875-40.515625-29.414063-50.621093-8.558594-4.957032-18.476563-7.789063-29.046875-7.789063zm0 0" fill="#f5737f"/><path d="m213.761719 289.726562 17.34375 25.621094-12.183594 75.484375 75.832031-92.441406-20.859375-23.078125 23.832031-58.664062-64.097656.367187zm0 0" fill="#ffc15a"/></g><path d="m482.15625 201.160156c-10.144531-113.21875-105.882812-201.160156-220.21875-201.160156-54.347656 0-106.679688 20.085938-147.359375 56.554688-40.109375 35.960937-65.683594 84.847656-72.105469 137.757812-24.898437 10.265625-42.472656 34.78125-42.472656 63.332031v82.902344c0 37.761719 30.730469 68.484375 68.503906 68.484375h54.039063c15.460937 0 28.039062-12.585938 28.039062-28.050781v-163.765625c0-15.46875-12.578125-28.050782-28.039062-28.050782h-2.304688c11.585938-51.464843 50.566407-93.109374 102.015625-107.796874 5.347656-1.527344 8.445313-7.101563 6.917969-12.449219-1.527344-5.351563-7.101563-8.445313-12.449219-6.921875-60.035156 17.140625-105.144531 66.535156-117.054687 127.167968h-31.164063c-1.683594 0-3.347656.082032-5.003906.203126 15.398438-97.046876 99.269531-169.226563 198.4375-169.226563 99.984375 0 184.304688 73.980469 198.765625 171.21875-5.507813-1.433594-11.28125-2.195313-17.234375-2.195313h-19.261719c-11.910156-60.664062-57.066406-110.078124-117.171875-127.226562-5.347656-1.523438-10.921875 1.574219-12.445312 6.921875-1.527344 5.351563 1.570312 10.921875 6.921875 12.449219 51.519531 14.695312 90.539062 56.363281 102.125 107.855468h-14.179688c-15.460937 0-28.039062 12.582032-28.039062 28.046876v163.769531c0 15.464843 12.578125 28.046875 28.039062 28.046875h48.117188c.578125 0 1.140625-.058594 1.691406-.152344 1.421875.09375 2.824219.152344 4.203125.152344 37.789062 0 68.53125-30.71875 68.53125-68.480469v-82.902344c0-23.425781-11.835938-44.132812-29.84375-56.484375zm-462.015625 139.386719v-8.304687h11.347656c5.558594 0 10.070313-4.507813 10.070313-10.070313s-4.507813-10.070313-10.070313-10.070313h-11.347656v-27.367187h11.347656c5.558594 0 10.070313-4.511719 10.070313-10.070313 0-5.5625-4.507813-10.074218-10.070313-10.074218h-11.347656v-6.945313c0-21.640625 14.300781-40.003906 33.953125-46.148437.316406-.074219.628906-.164063.933594-.269532 2.992187-.867187 6.101562-1.453124 9.296875-1.730468v179.199218c-24.714844-2.125-44.183594-22.898437-44.183594-48.148437zm110.296875-123.332031v163.765625c0 4.285156-3.613281 7.90625-7.894531 7.90625h-38.074219v-179.582031h23.671875.019531.03125 14.351563c4.28125 0 7.894531 3.621093 7.894531 7.910156zm251.125 163.765625v-163.765625c0-4.363282 3.539062-7.910156 7.894531-7.910156h26.222657.03125.023437 11.769531v179.582031h-38.046875c-4.355469 0-7.894531-3.546875-7.894531-7.90625zm66.082031 7.730469v-179.226563c6.914063.59375 13.417969 2.648437 19.199219 5.847656.40625.277344.832031.527344 1.28125.746094 14.195312 8.433594 23.734375 23.90625 23.734375 41.566406v6.949219h-12.347656c-5.558594 0-10.070313 4.507812-10.070313 10.070312s4.507813 10.070313 10.070313 10.070313h12.347656v27.367187h-12.347656c-5.558594 0-10.070313 4.507813-10.070313 10.070313s4.507813 10.074219 10.070313 10.074219h12.347656v8.304687c0 25.246094-19.480469 46.035157-44.214844 48.160157zm0 0"/><path d="m297.726562 206.578125c-.019531 0-.039062 0-.058593 0l-64.097657.367187c-4.519531.023438-8.46875 3.058594-9.65625 7.417969l-19.867187 72.707031c-.773437 2.835938-.269531 5.867188 1.375 8.300782l15.105469 22.316406-11.550782 71.539062c-.726562 4.496094 1.652344 8.917969 5.804688 10.785157 1.332031.601562 2.742188.890625 4.136719.890625 2.945312 0 5.828125-1.292969 7.789062-3.683594l75.832031-92.445312c3.160157-3.851563 3.027344-9.441407-.316406-13.140626l-16.617187-18.386718 21.453125-52.808594c1.265625-3.117188.890625-6.65625-.992188-9.441406-1.875-2.765625-5-4.417969-8.339844-4.417969zm-31.304687 75.488281 15.042969 16.640625-46.652344 56.871094 6.234375-38.625c.410156-2.53125-.164063-5.125-1.601563-7.25l-14.75-21.789063 16.632813-60.871093 41.402344-.238281-18.167969 44.71875c-1.453125 3.578124-.730469 7.675781 1.859375 10.542968zm0 0"/><path d="m261.9375 75.804688c5.5625 0 10.070312-4.507813 10.070312-10.070313s-4.507812-10.070313-10.070312-10.070313h-.171875c-5.558594 0-10.070313 4.507813-10.070313 10.070313s4.507813 10.070313 10.070313 10.070313zm0 0"/></svg>