<svg viewBox="0 -48 512.00028 512" width="24px" xmlns="http://www.w3.org/2000/svg"><g fill-rule="evenodd"><path d="m186.332031 224.3125 69.652344 34.273438-36.722656 69.726562-10.230469 78.605469-76-14.316407-76 14.316407-10.199219-78.605469-36.753906-69.726562 69.679687-34.273438 53.273438-57.425781zm-33.863281 47.820312-19.4375-32.484374-19.4375 32.484374-36.074219 8.929688 24.058594 28.996094-2.863281 37.984375 34.316406-14.542969 34.316406 14.542969-2.863281-37.984375 24.085937-28.996094zm0 0" fill="#f5737f"/><path d="m152.46875 272.132812 36.101562 8.929688-24.085937 28.996094 2.863281 37.984375-34.316406-14.542969-34.316406 14.542969 2.863281-37.984375-24.058594-28.996094 36.074219-8.929688 19.4375-32.484374zm0 0" fill="#bdd9ff"/><path d="m325.667969 224.3125-69.683594 34.273438 36.753906 69.726562 10.230469 78.605469 75.972656-14.316407 76 14.316407 10.230469-78.605469 36.753906-69.726562-69.683593-34.273438-53.300782-57.425781zm33.859375 47.820312 19.414062-32.484374 19.4375 32.484374 36.101563 8.929688-24.085938 28.996094 2.886719 37.984375-34.34375-14.542969-34.316406 14.542969 2.890625-37.984375-24.085938-28.996094zm0 0" fill="#f5737f"/><path d="m359.527344 272.132812-36.097656 8.929688 24.085937 28.996094-2.890625 37.984375 34.316406-14.542969 34.34375 14.542969-2.890625-37.984375 24.085938-28.996094-36.101563-8.929688-19.4375-32.484374zm0 0" fill="#bdd9ff"/></g><path d="m190.992188 271.273438-32.023438-7.921876-17.285156-28.878906c-1.820313-3.042968-5.105469-4.90625-8.652344-4.90625s-6.832031 1.863282-8.652344 4.90625l-17.285156 28.878906-31.996094 7.921876c-3.371094.835937-6.074218 3.34375-7.15625 6.636718-1.085937 3.296875-.398437 6.921875 1.816406 9.589844l21.457032 25.863281-2.554688 33.921875c-.265625 3.507813 1.316406 6.898438 4.175782 8.949219 2.855468 2.050781 6.578124 2.464844 9.8125 1.09375l30.382812-12.875 30.382812 12.875c1.261719.535156 2.601563.796875 3.933594.796875 2.078125 0 4.140625-.640625 5.882813-1.890625 2.855469-2.050781 4.4375-5.445313 4.171875-8.949219l-2.554688-33.917968 21.484375-25.863282c2.21875-2.671875 2.90625-6.292968 1.820313-9.589844-1.082032-3.300781-3.789063-5.808593-7.160156-6.640624zm-34.265626 32.34375c-1.667968 2.011718-2.496093 4.59375-2.296874 7.199218l1.617187 21.484375-19.082031-8.085937c-1.253906-.53125-2.59375-.796875-3.933594-.796875s-2.675781.265625-3.933594.796875l-19.082031 8.085937 1.617187-21.484375c.199219-2.605468-.625-5.183594-2.292968-7.195312l-13.800782-16.628906 20.476563-5.070313c2.609375-.644531 4.851563-2.304687 6.230469-4.609375l10.785156-18.023438 10.785156 18.023438c1.378906 2.304688 3.621094 3.964844 6.230469 4.609375l20.492187 5.070313zm0 0"/><path d="m180.03125 232.1875.144531.113281c1.859375 1.488281 4.082031 2.210938 6.292969 2.210938 2.957031 0 5.890625-1.292969 7.882812-3.785157 3.476563-4.347656 2.773438-10.695312-1.578124-14.171874l-.140626-.113282c-4.351562-3.480468-10.695312-2.773437-14.175781 1.574219s-2.773437 10.695313 1.574219 14.171875zm0 0"/><path d="m511.332031 262.203125c.070313-.1875.136719-.378906.195313-.570313.039062-.121093.078125-.242187.113281-.363281.054687-.199219.101563-.402343.144531-.605469.023438-.121093.050782-.242187.070313-.363281.035156-.203125.0625-.40625.082031-.609375.015625-.132812.03125-.261718.039062-.390625.011719-.191406.019532-.382812.023438-.578125 0-.148437.003906-.296875-.003906-.449218-.003906-.171876-.019532-.347657-.03125-.523438-.015625-.167969-.03125-.335938-.050782-.503906-.011718-.070313-.011718-.136719-.023437-.203125l-34.277344-221.355469c-3.707031-25.296875-24.101562-37.1875-41.410156-35.535156-15.386719 1.46875-31.4375 14.277344-30.328125 38.925781.25 5.5625 4.976562 9.855469 10.527344 9.621094 5.5625-.25 9.871094-4.964844 9.621094-10.527344-.46875-10.46875 4.050781-17.175781 12.097656-17.945313 8.257812-.785156 17.613281 5.273438 19.550781 18.46875l31.324219 202.292969-50.628906-24.898437-52.03125-56.0625c-1.910157-2.058594-4.585938-3.226563-7.394532-3.226563-2.808594.003907-5.488281 1.171875-7.394531 3.230469l-22.160156 23.894531c-3.785157 4.082031-3.542969 10.464844.539062 14.25 4.085938 3.789063 10.464844 3.546875 14.253907-.539062l14.765624-15.921875 45.90625 49.460937c.839844.902344 1.835938 1.644531 2.941407 2.1875l60.375 29.691407-31.917969 60.558593c-.558594 1.058594-.925781 2.210938-1.078125 3.398438l-8.851563 68.019531-65.511718-12.339844c-1.234375-.234375-2.5-.234375-3.734375 0l-65.480469 12.335938-8.855469-68.015625c-.152343-1.1875-.519531-2.339844-1.078125-3.398438l-31.917968-60.554687 22.234374-10.929688c4.996094-2.457031 7.054688-8.5 4.597657-13.5-2.457031-4.996094-8.5-7.054687-13.5-4.597656l-27.085938 13.3125-27.0625-13.3125c-4.996093-2.460938-11.039062-.402344-13.5 4.59375-2.460937 5-.402343 11.042969 4.59375 13.5l22.210938 10.929688-31.894531 60.558593c-.558594 1.0625-.921876 2.210938-1.078126 3.398438l-8.851562 68.019531-65.507812-12.339844c-1.234376-.234375-2.5-.234375-3.734376 0l-65.507812 12.335938-8.824219-68.011719c-.15625-1.191406-.523437-2.34375-1.082031-3.402344l-31.917969-60.558593 60.375-29.691407c1.109375-.542969 2.105469-1.289062 2.945313-2.191406l45.882812-49.460937 14.792969 15.929687c3.789063 4.082031 10.171875 4.320313 14.253906.53125s4.316407-10.171875.527344-14.253906l-22.1875-23.894531c-1.910156-2.054688-4.585937-3.222657-7.390625-3.222657 0 0 0 0-.003906 0-2.804688 0-5.480469 1.171875-7.390625 3.226563l-52.003907 56.0625-50.625 24.898437 31.335938-202.382812c1.910156-13.101563 11.246094-19.160157 19.503906-18.378907 8.046875.765626 12.570313 7.476563 12.101563 17.945313-.25 5.5625 4.058593 10.277344 9.621093 10.527344 5.574219.238281 10.277344-4.058594 10.527344-9.621094 1.109375-24.660156-14.949218-37.464844-30.339844-38.929687-17.296874-1.640626-37.683593 10.253906-41.359374 35.457031l-34.289063 221.4375c-.007813.066406-.0117188.128906-.0195312.199219-.0234376.167968-.0390626.339843-.0546876.511718-.0117187.171875-.0273437.34375-.03124995.515625-.00390625.152344-.00390625.304688 0 .457031 0 .191407.00390625.378907.01953125.570313.0078125.132813.0234375.265625.0390625.398437.0195312.199219.046875.402344.082031.601563.019531.125.046875.246094.074219.371094.042969.199219.085938.402343.140625.597656.035156.125.074219.246094.113281.371094.058594.1875.125.375.195313.5625.050781.128906.105469.257812.160156.386719.074219.171874.152344.34375.238281.507812.03125.066406.054688.128906.085938.191406l35.910156 68.125 9.964844 76.804688c.359375 2.75 1.832031 5.234375 4.078125 6.863281 1.738281 1.257813 3.8125 1.921875 5.925781 1.921875.621094 0 1.246094-.058594 1.867188-.171875l74.132812-13.964844 74.132812 13.964844c2.726563.511719 5.542969-.121094 7.789063-1.75 2.242187-1.628906 3.71875-4.109375 4.078125-6.859375l9.996094-76.808594 26.960937-51.191406 26.984375 51.195312 9.996094 76.804688c.355469 2.75 1.832031 5.234375 4.078125 6.859375 2.246094 1.628906 5.0625 2.261719 7.789063 1.75l74.105468-13.964844 74.132813 13.964844c.621093.117187 1.246093.171875 1.867187.171875 2.113282 0 4.1875-.664062 5.921875-1.921875 2.246094-1.628906 3.722657-4.109375 4.078125-6.859375l9.996094-76.804688 35.910156-68.128906c.03125-.058594.054688-.121094.085938-.183594.085937-.171874.164062-.347656.242187-.523437.050781-.125.105469-.25.15625-.375zm0 0"/><path d="m337.148438 313.363281-2.582032 33.914063c-.265625 3.507812 1.316406 6.902344 4.171875 8.953125 1.746094 1.25 3.808594 1.894531 5.886719 1.894531 1.332031 0 2.667969-.261719 3.933594-.796875l30.382812-12.875 30.410156 12.875c3.242188 1.371094 6.960938.957031 9.816407-1.097656 2.859375-2.054688 4.4375-5.445313 4.171875-8.953125l-2.578125-33.914063 21.476562-25.859375c2.21875-2.667968 2.90625-6.292968 1.824219-9.589844-1.085938-3.296874-3.789062-5.808593-7.160156-6.640624l-32.023438-7.921876-17.285156-28.878906c-1.820312-3.042968-5.105469-4.90625-8.652344-4.90625-.003906 0-.003906 0-.003906 0-3.550781 0-6.835938 1.863282-8.65625 4.910156l-17.253906 28.875-32.019532 7.921876c-3.371093.832031-6.074218 3.34375-7.160156 6.640624-1.085937 3.296876-.394531 6.921876 1.824219 9.589844zm24.800781-31.441406c2.613281-.644531 4.859375-2.308594 6.238281-4.617187l10.757812-18.003907 10.777344 18.011719c1.382813 2.304688 3.625 3.964844 6.234375 4.609375l20.488281 5.070313-13.808593 16.625c-1.671875 2.015624-2.496094 4.597656-2.300781 7.207031l1.636718 21.476562-19.101562-8.085937c-1.257813-.53125-2.59375-.796875-3.933594-.796875-1.335938 0-2.675781.265625-3.933594.796875l-19.066406 8.082031 1.632812-21.472656c.199219-2.609375-.625-5.195313-2.296874-7.207031l-13.8125-16.628907zm0 0"/><path d="m325.53125 234.511719c2.210938 0 4.433594-.722657 6.292969-2.210938l.144531-.113281c4.347656-3.476562 5.054688-9.824219 1.574219-14.171875s-9.828125-5.054687-14.175781-1.574219l-.140626.113282c-4.347656 3.476562-5.054687 9.824218-1.578124 14.171874 1.992187 2.492188 4.925781 3.785157 7.882812 3.785157zm0 0"/></svg>