<svg viewBox="-8 0 512 512" width="24px" xmlns="http://www.w3.org/2000/svg"><g fill-rule="evenodd"><path d="m445.269531 101.417969c-33.808593-35.976563-81.019531-40.039063-124.945312-24.023438l-26.976563 46.789063 59.898438 34.605468-66.699219 97.410157 43.179687 24.167969-168.324218 148.605468 25.832031 27.511719c43.496094 38.953125 79.679687 38.953125 122.34375-.800781l135.691406-144.402344c54.242188-57.710938 54.242188-152.148438 0-209.863281zm0 0" fill="#f5737f"/><path d="m204.695312 177.980469-36.777343-21.25 37.320312-65.292969c-51.039062-30.230469-112.855469-34.234375-154.4375 9.980469-54.242187 57.714843-54.242187 152.152343 0 209.863281l80.878907 86.058594 49.496093-97.78125-36.777343-21.28125c19.746093-34.230469 40.605468-66.148438 60.296874-100.296875zm0 0" fill="#f5737f"/><path d="m204.695312 177.980469c-19.691406 34.148437-40.550781 66.066406-60.300781 100.296875l36.78125 21.28125-49.496093 97.78125-52.929688 104.589844 82.652344-72.957032 168.324218-148.605468-43.179687-24.167969 66.699219-97.410157-59.898438-34.605468 26.976563-46.789063 38.867187-67.324219h-107.398437l-46.554688 81.367188-37.320312 65.292969zm0 0" fill="#ffc15a"/></g><path d="m487.035156 151.925781c-1.800781-5.261719-7.527344-8.070312-12.789062-6.269531-5.261719 1.800781-8.070313 7.527344-6.265625 12.789062 17.367187 50.765626 5.574219 108.046876-30.046875 145.941407l-135.460938 144.152343c-38.402344 35.667969-68.789062 35.871094-108.199218.730469l-18.421876-19.621093 43.140626-38.085938c4.167968-3.679688 4.566406-10.046875.882812-14.214844-3.679688-4.171875-10.042969-4.566406-14.214844-.886718l-94.214844 83.175781 78.714844-155.53125c2.414063-4.769531.683594-10.589844-3.941406-13.265625l-28.035156-16.21875c8.238281-14.003906 16.707031-27.800782 24.941406-41.21875 10.015625-16.3125 20.371094-33.183594 30.292969-50.390625 2.777343-4.816407 1.128906-10.972657-3.683594-13.753907l-28.097656-16.234374 76-132.882813h84.117187l-29.949218 51.902344c-.128907.207031-.25.417969-.363282.632812l-26.816406 46.472657c-2.777344 4.816406-1.132812 10.972656 3.683594 13.753906l50.484375 29.167968-60.558594 88.4375c-1.597656 2.335938-2.140625 5.234376-1.496094 7.988282s2.417969 5.109375 4.886719 6.492187l30.785156 17.226563-39.960937 35.273437c-4.167969 3.679688-4.566407 10.042969-.882813 14.214844 3.679688 4.167969 10.042969 4.566406 14.210938.886719l50.613281-44.675782c2.449219-2.160156 3.695313-5.371093 3.347656-8.617187-.34375-3.25-2.246093-6.125-5.09375-7.71875l-33.5625-18.785156 60.472657-88.316407c1.585937-2.3125 2.132812-5.183593 1.511718-7.917968s-2.355468-5.085938-4.785156-6.492188l-51.183594-29.570312 20.132813-34.890625c35.8125-12.605469 61.988281-10.878907 89.621093 5.710937 1.621094.976563 3.410157 1.441406 5.171876 1.441406 3.421874 0 6.757812-1.742187 8.644531-4.890624 2.863281-4.765626 1.320312-10.953126-3.449219-13.816407-18.277344-10.976562-36.613281-16.476562-56.058594-16.8125-9.414062-.164062-19.0625.871094-29.394531 3.183594l26.148437-45.320313c1.796876-3.113281 1.796876-6.953124-.003906-10.070312-1.796875-3.113281-5.121094-5.03125-8.71875-5.03125h-107.398437c-3.609375 0-6.945313 1.933594-8.738281 5.070312l-41.617188 72.761719c-25.5-13.386719-52.039062-20.085937-77.238281-19.386719-31.4375.867188-59.351563 13.339844-80.734375 36.074219-57.953125 61.664063-57.953125 161.996094 0 223.660157l76.046875 80.917968-49.746094 98.285156c-2.179687 4.308594-.996094 9.558594 2.828125 12.515626 1.816406 1.40625 3.988281 2.101562 6.15625 2.101562 2.386719 0 4.769531-.84375 6.667969-2.519531l75.324219-66.496094 19.152343 20.394531c.199219.210938.40625.414063.621094.605469 23.621094 21.15625 45.847656 31.734375 67.921875 31.734375 22.390625 0 44.628906-10.886719 68.007812-32.667969.164063-.152343.320313-.308593.472657-.472656l135.6875-144.398437c40.667969-43.257813 54.183593-108.519532 34.429687-166.253907zm-428.894531 152.460938c-50.804687-54.058594-50.804687-142.015625 0-196.070313 38.332031-40.765625 92.375-34.105468 133.292969-12.988281l-32.261719 56.402344c-2.75 4.8125-1.09375 10.945312 3.707031 13.71875l28.027344 16.195312c-8.226562 13.992188-16.703125 27.796875-24.945312 41.222657-10.003907 16.300781-20.351563 33.15625-30.289063 50.378906-2.773437 4.816406-1.128906 10.96875 3.683594 13.75l28.535156 16.511718-38.707031 76.472657zm0 0"/><path d="m238.574219 347.417969-.144531.140625c-3.925782 3.941406-3.914063 10.316406.023437 14.242187 1.964844 1.960938 4.539063 2.9375 7.109375 2.9375 2.582031 0 5.167969-.984375 7.132812-2.960937l.144532-.140625c3.925781-3.941407 3.914062-10.316407-.023438-14.242188-3.941406-3.929687-10.316406-3.917969-14.242187.023438zm0 0"/><path d="m448.128906 120.5c1.992188 2.394531 4.859375 3.628906 7.75 3.628906 2.269532 0 4.550782-.761718 6.433594-2.328125 4.273438-3.558593 4.859375-9.90625 1.300781-14.183593l-.144531-.171876c-3.554688-4.273437-9.90625-4.855468-14.179688-1.300781-4.277343 3.558594-4.859374 9.910157-1.300781 14.183594zm0 0"/></svg>