<svg viewBox="-49 0 511 512" width="24px" xmlns="http://www.w3.org/2000/svg"><g fill-rule="evenodd"><path d="m307.371094 73.046875v-62.960937h-250.625c-25.390625 0-46.160156 20.769531-46.160156 46.15625v399.484374c0 25.390626 20.769531 46.1875 46.160156 46.1875h299.507812c25.390625 0 46.160156-20.796874 46.160156-46.1875v-336.492187h-48.882812c-25.390625 0-46.160156-20.769531-46.160156-46.1875zm0 0" fill="#cee3ff"/><path d="m402.414062 119.234375-95.042968-109.148437v62.960937c0 25.417969 20.769531 46.1875 46.160156 46.1875zm0 0" fill="#9bc6ff"/><path d="m271.265625 121.417969-95.015625 25.304687c-4.902344 1.300782-8.898438 6.628906-8.898438 11.871094v22.839844c0 5.214844 3.996094 8.445312 8.898438 7.140625l95.015625-25.304688c4.902344-1.273437 8.898437-6.628906 8.898437-11.871093v-22.839844c0-5.214844-3.996093-8.445313-8.898437-7.140625zm0 0" fill="#ff6977"/><path d="m167.351562 272.164062c0-13.484374-12.835937-24.425781-28.679687-24.425781-15.839844 0-28.675781 10.941407-28.675781 24.425781 0 13.488282 12.835937 24.429688 28.675781 24.429688 15.84375 0 28.679687-10.941406 28.679687-24.429688zm0 0" fill="#ff6977"/><path d="m222.78125 229.433594c0 13.488281 12.835938 24.425781 28.675781 24.425781 15.871094 0 28.707031-10.9375 28.707031-24.425781 0-13.488282-12.835937-24.394532-28.707031-24.394532-15.839843-.003906-28.675781 10.90625-28.675781 24.394532zm0 0" fill="#ff6977"/></g><path d="m92.03125 347.085938c0 5.570312 4.515625 10.085937 10.085938 10.085937 1.886718 0 5.230468.019531 9.863281.042969 10.355469.058594 27.683593.152344 49.53125.152344 5.570312 0 10.085937-4.511719 10.085937-10.082032 0-5.570312-4.515625-10.085937-10.085937-10.085937-21.789063 0-39.085938-.09375-49.417969-.152344-4.6875-.023437-8.070312-.042969-9.976562-.042969-5.570313 0-10.085938 4.515625-10.085938 10.082032zm0 0"/><path d="m320.96875 347.085938c0-5.566407-4.515625-10.082032-10.085938-10.082032h-59.027343c-5.570313 0-10.085938 4.515625-10.085938 10.082032 0 5.570312 4.515625 10.085937 10.085938 10.085937h59.027343c5.570313 0 10.085938-4.515625 10.085938-10.085937zm0 0"/><path d="m115.976562 394.410156c0 5.566406 4.515626 10.082032 10.085938 10.082032h160.875c5.570312 0 10.085938-4.515626 10.085938-10.082032 0-5.570312-4.515626-10.085937-10.085938-10.085937h-160.875c-5.570312 0-10.085938 4.515625-10.085938 10.085937zm0 0"/><path d="m106.878906 451.8125h199.242188c5.570312 0 10.085937-4.511719 10.085937-10.082031 0-5.570313-4.515625-10.085938-10.085937-10.085938h-199.242188c-5.570312 0-10.085937 4.515625-10.085937 10.085938 0 5.570312 4.515625 10.082031 10.085937 10.082031zm0 0"/><path d="m290.25 229.433594v-100.875c0-5.703125-2.425781-10.839844-6.65625-14.09375-4.152344-3.191406-9.589844-4.210938-14.921875-2.792969l-95 25.300781c-9.355469 2.453125-16.40625 11.742188-16.40625 21.621094v83.300781c-5.523437-2.699219-11.859375-4.238281-18.59375-4.238281-21.371094 0-38.761719 15.480469-38.761719 34.507812 0 19.03125 17.390625 34.511719 38.761719 34.511719 21.375 0 38.761719-15.480469 38.761719-34.511719 0-.507812-.019532-1.015624-.042969-1.519531.023437-.285156.042969-.570312.042969-.859375v-71.15625c.472656-.085937.941406-.1875 1.410156-.3125l91.238281-24.296875v25.167969c-5.523437-2.699219-11.859375-4.234375-18.59375-4.234375-21.390625 0-38.792969 15.46875-38.792969 34.480469 0 19.03125 17.402344 34.511718 38.792969 34.511718 21.371094 0 38.761719-15.480468 38.761719-34.511718zm-151.578125 57.074218c-10.078125 0-18.59375-6.570312-18.59375-14.34375 0-7.773437 8.515625-14.339843 18.59375-14.339843 10.082031 0 18.59375 6.566406 18.59375 14.339843 0 7.773438-8.511719 14.34375-18.59375 14.34375zm130-132.984374-91.238281 24.296874v-19.226562c0-.695312.851562-1.882812 1.398437-2.125.003907 0 .007813 0 .011719-.003906l91.238281-24.296875v19.230469c0 .703124-.867187 1.90625-1.410156 2.125zm-35.808594 75.910156c0-7.757813 8.527344-14.3125 18.625-14.3125 10.078125 0 18.59375 6.554687 18.59375 14.3125 0 7.777344-8.515625 14.34375-18.59375 14.34375-10.097656 0-18.625-6.566406-18.625-14.34375zm0 0"/><path d="m410.019531 112.613281-95.046875-109.152343c-1.914062-2.199219-4.6875-3.460938-7.601562-3.460938h-250.625c-31.015625 0-56.246094 25.230469-56.246094 56.242188v399.484374c0 31.03125 25.230469 56.273438 56.246094 56.273438h299.507812c31.015625 0 56.246094-25.242188 56.246094-56.273438v-107.308593c0-5.570313-4.515625-10.082031-10.085938-10.082031-5.566406 0-10.082031 4.511718-10.082031 10.082031v107.308593c0 19.90625-16.183593 36.105469-36.078125 36.105469h-299.507812c-19.894532 0-36.078125-16.199219-36.078125-36.105469v-399.484374c0-19.890626 16.183593-36.074219 36.078125-36.074219h240.539062v52.878906c0 31.027344 25.234375 56.273437 56.246094 56.273437h38.800781v126.496094c0 5.566406 4.515625 10.082032 10.082031 10.082032 5.570313 0 10.085938-4.515626 10.085938-10.082032v-136.582031c0-2.433594-.882812-4.785156-2.480469-6.621094zm-56.488281-3.460937c-19.890625 0-36.078125-16.199219-36.078125-36.105469v-36.027344l62.808594 72.132813zm0 0"/><path d="m402.414062 291.496094c-5.566406 0-10.082031 4.515625-10.082031 10.082031v.199219c0 5.570312 4.515625 10.082031 10.082031 10.082031 5.570313 0 10.085938-4.511719 10.085938-10.082031v-.199219c0-5.566406-4.515625-10.082031-10.085938-10.082031zm0 0"/><path d="m206.683594 357.171875c5.570312 0 10.085937-4.515625 10.085937-10.085937 0-5.566407-4.515625-10.082032-10.085937-10.082032h-.167969c-5.570313 0-10.085937 4.515625-10.085937 10.082032 0 5.570312 4.515624 10.085937 10.085937 10.085937zm0 0"/></svg>